<svg width="17" height="23" viewBox="0 0 17 23" fill="none" xmlns="http://www.w3.org/2000/svg">
<path fill-rule="evenodd" clip-rule="evenodd" d="M10.1635 5.67017C10.1635 6.44543 10.673 6.95489 11.4482 6.95489C12.0906 6.95489 12.7551 6.44543 12.7551 5.67017V4.76201C12.7551 2.17042 10.673 0.221191 8.21427 0.221191C5.62268 0.221191 3.67345 2.30332 3.6956 4.76201V5.67017C3.6956 6.44543 4.20506 6.95489 4.98032 6.95489C5.75558 6.95489 6.26504 6.44543 6.26504 5.67017V4.76201C6.26504 3.72094 7.1732 2.81278 8.21427 2.81278C9.25534 2.81278 10.1635 3.72094 10.1635 4.76201V5.67017ZM4.07209 22.3714H12.3563C13.3974 22.3714 14.5713 21.8619 15.3023 21.0867C16.0776 20.3114 16.4763 19.1596 16.3434 17.9856L15.5681 11.119C15.3245 9.0369 13.641 7.48637 11.5589 7.48637H4.8252C2.76522 7.48637 1.08179 9.0369 0.815991 11.119L0.040729 17.9856C-0.092173 19.1374 0.284382 20.3114 1.08179 21.0867C1.87921 21.8619 2.89812 22.3714 4.07209 22.3714ZM3.42973 11.3405C3.56263 10.5653 4.07209 10.0558 4.84735 10.0558H11.6254C12.4006 10.0558 12.9101 10.5653 13.043 11.3405L13.6853 18.2071C13.6853 18.7387 13.5524 19.1153 13.2866 19.3811C13.0208 19.7577 12.6443 19.8906 12.2456 19.8906H4.09424C3.69553 19.8906 3.31898 19.6469 3.05317 19.3811C2.78737 18.9824 2.65447 18.6058 2.65447 18.2071L3.42973 11.3405Z" fill="#D2BEA5"/>
</svg>
