<svg width="34" height="20" viewBox="0 0 34 20" fill="none" xmlns="http://www.w3.org/2000/svg">
<path d="M10.6598 0.717773H0.442871V2.51167H4.48211V9.03385H6.62053V2.51167H10.6598V0.717773Z" fill="#6D6661"/>
<path d="M20.5105 0.717773V3.97292H13.7389V0.717773H11.6004V9.03385H13.7389V5.7787H20.5105V9.03385H22.6489V0.717773H20.5105Z" fill="#6D6661"/>
<path d="M32.6255 2.41663V0.717773H23.8342V9.03385H32.6255V7.335H25.9726V5.64802H32.6255V4.10361H25.9726V2.41663H32.6255Z" fill="#6D6661"/>
<path d="M0.442871 16.7945C0.442871 19.1943 2.47437 19.7764 5.88396 19.7764C8.96091 19.7764 11.0637 19.3249 11.0637 17.1034C11.0637 15.0006 9.03219 14.8224 5.75328 14.6442C3.32974 14.5016 2.83077 14.3828 2.83077 13.7413C2.83077 13.1235 3.32974 12.9216 5.43252 12.9216C7.6541 12.9216 8.56887 13.1473 8.56887 14.062H10.7073C10.7073 12.0068 8.80647 11.2227 5.67012 11.2227C2.55753 11.2227 0.692353 11.8048 0.692353 13.6344C0.692353 15.4995 2.12985 16.0698 5.75328 16.2361C8.45007 16.3668 8.92527 16.4856 8.92527 17.1746C8.92527 17.828 8.24811 18.0775 6.00276 18.0775C3.2941 18.0775 2.58129 17.6736 2.58129 16.7945H0.442871Z" fill="#6D6661"/>
<path d="M14.2145 11.3415H12.0761V19.6576H14.2145V11.3415Z" fill="#6D6661"/>
<path d="M17.5382 17.8637V11.3415H15.3997V19.6576H23.9534V17.8637H17.5382Z" fill="#6D6661"/>
<path d="M27.1615 17.8637V11.3415H25.0231V19.6576H33.5768V17.8637H27.1615Z" fill="#6D6661"/>
</svg>
